<?xml version="1.0" encoding="utf-8"?>
<!-- Generator: Adobe Illustrator 23.0.3, SVG Export Plug-In . SVG Version: 6.00 Build 0)  -->
<svg version="1.1" xmlns="http://www.w3.org/2000/svg" xmlns:xlink="http://www.w3.org/1999/xlink" x="0px" y="0px"
     viewBox="500 500 1000 1000" style="enable-background:new 250 250 1500 1500;" xml:space="preserve">
<style type="text/css">
	.st0{fill:#E6B341;}
</style>
    <g>
	<path d="M1052.62,829.31c-6.09,4.98-5.7,14.44,0.85,18.8c11.97,7.99,33.49,16.36,67.16,9.57c56.95-11.5,126.55-78.46,128.68-184.85
		c1.74-87.19-41.49-159.32-119.54-166.87c-0.87-0.08-1.74-0.16-2.62-0.22c-38.38-2.98-84.99,9.48-138.66,43.11
		c-94.14,58.99-152.45,168.56-191.99,269.2c-52.07,132.54-131.11,440.52,61.11,504.59c136.36,45.45,203.76-76.81,203.76-76.81
		l-17.85,237.38c24.3,35.27,111.07,23.74,111.07,23.74c-1.05-75.23,27.73-371.36,43.93-438.24c16.2-66.87,5.75-100.83-28.21-99.27
		c-88.3-2.09-207.21,35.81-207.21,35.81c-2.09,33.44,43.67,75.22,43.67,75.22h82.82c0,0-36.06,84.12-66.62,136.63
		c-30.57,52.51-92.48,103.19-120.69,11.49c-28.22-91.69,8.62-228.06,42.32-365.21c29.78-121.21,110.37-287.7,157.37-314.49
		c0,0-26.03,44.62-26.09,44.73c4.89-8.38,12.55-16.09,20.67-21.29c6.35-4.07,13.61-6.75,21.21-6.84c5.57-0.06,12.22,0.69,17.09,3.61
		c11.74,7.05,8.27,29.75,8.18,40.85c-0.14,18.04-2.56,35.97-6.42,53.56C1136.6,663.54,1110.62,781.91,1052.62,829.31z"/>
        <path class="st0" d="M1264.62,654.45c-2.08,103.98-52.6,157.28-108.26,168.51c-30.36,6.13-48.86,1.77-59.42-3.45
		c-6.46-3.2-7.38-12.08-1.76-16.59c56.59-45.48,77.78-156.9,77.78-156.9s22.98-100.34-17.62-114.89
		c-40.6-14.55-137.11,176.17-170.04,310.21c-32.94,134.04-68.94,267.32-41.36,356.94c27.57,89.62,88.09,40.09,117.96-11.23
		c29.87-51.32,65.11-133.53,65.11-133.53h-80.94c0,0-42.89-32.94-40.85-65.62c0,0,114.38-44.94,200.68-42.89
		c33.19-1.53,43.4,31.66,27.57,97.02s-52.09,352.85-51.06,426.38c0,0-70.72,11.74-94.47-22.72l11.49-230.55
		c0,0-65.87,119.49-199.15,75.06c-133.28-44.43-126.38-235.15-108.77-317.11c17.62-81.96,75.32-338.04,236.68-439.15
		S1267.18,526.79,1264.62,654.45z"/>
</g>
</svg>
